PathFileType	4	(x/y/z)	A01_SLOW_T0026.trc
DataRate	CameraRate	NumFrames	NumMarkers	Units	OrigDataRate	OrigDataStartFrame	OrigNumFrames
240	240	11	48	mm	240	316	361
Frame#	Time	TOP_HEAD			R_AC			L_AC			R_ASIS			L_ASIS			R_PSIS			L_PSIS			SACRAL			L_IC			R_IC			L_GT			R_GT			R_LAT_KNEE			R_MED_KNEE			L_MED_KNEE			L_LAT_KNEE			R_TOE			L_TOE			R_1ST_MET			L_1ST_MET			L_5TH_MET			R_5TH_MET			R_LAT_ANK			R_MED_ANK			L_MED_ANK			L_LAT_ANK			L_HEEL_SUP			R_HEEL_SUP			L_HEEL_LAT			R_HEEL_LAT			L_HEEL_MED			R_HEEL_MED			R_LL_PROX_POST			R_LL_PROX_ANT			R_LL_DIST_ANT			R_LL_DIST_POST			R_THIGH_PROX_POST			R_THIGH_PROX_ANT			R_THIGH_DIST_ANT			R_THIGH_DIST_POST			L_PROS_PROX_ANT			L_PROS_PROX_POST			L_PROS_DIST_POST			L_PROS_DIST_ANT			L_THIGH_PROX_ANT			L_THIGH_PROX_POST			L_THIGH_DIST_POST			L_THIGH_DIST_ANT			
		X1	Y1	Z1	X2	Y2	Z2	X3	Y3	Z3	X4	Y4	Z4	X5	Y5	Z5	X6	Y6	Z6	X7	Y7	Z7	X8	Y8	Z8	X9	Y9	Z9	X10	Y10	Z10	X11	Y11	Z11	X12	Y12	Z12	X13	Y13	Z13	X14	Y14	Z14	X15	Y15	Z15	X16	Y16	Z16	X17	Y17	Z17	X18	Y18	Z18	X19	Y19	Z19	X20	Y20	Z20	X21	Y21	Z21	X22	Y22	Z22	X23	Y23	Z23	X24	Y24	Z24	X25	Y25	Z25	X26	Y26	Z26	X27	Y27	Z27	X28	Y28	Z28	X29	Y29	Z29	X30	Y30	Z30	X31	Y31	Z31	X32	Y32	Z32	X33	Y33	Z33	X34	Y34	Z34	X35	Y35	Z35	X36	Y36	Z36	X37	Y37	Z37	X38	Y38	Z38	X39	Y39	Z39	X40	Y40	Z40	X41	Y41	Z41	X42	Y42	Z42	X43	Y43	Z43	X44	Y44	Z44	X45	Y45	Z45	X46	Y46	Z46	X47	Y47	Z47	X48	Y48	Z48	

316	1.3161	740.91	1791.2	385.94	539.26	1562.6	598.8	469.02	1589.1	143.95	530.16	1108.4	564.06	535.36	1056.4	209.7	310.9	1109.8	435.37	322.64	1102.4	305.56	301.6	1076.3	368	492.38	1180.7	170.99	499.33	1210.9	574.21	485.54	972.76	166.51	457.12	997.9	599.83	391.23	595.51	528.56	420.48	592.42	398.46	642.04	587.55	376.23	612.61	597.12	219.9	497.55	66.498	416.94	908.1	150.34	238.38	414.68	55.601	373.28	839.14	102.03	293.97	806.06	93.211	168.22	390	45.917	508.94	293.8	135.14	488.58	291.48	143.09	387.24	695.41	155.17	287.63	665.27	143.24	222.27	597.94	69.467	261.89	184.42	121.52	435.7	612.34	44.729	230.06	187.21	95.629	469.32	625.38	43.949	291.9	187.92	94.528	408.8	271.17	434.87	526.43	339.34	414.97	543.65	331.06	341.77	524.77	275.59	352.45	515.68	396.1	865.2	572.71	468.11	874.14	580.96	458.83	783.37	569.68	390.88	776.57	559.62	676.54	527.24	225.97	622.88	514.35	216.62	631.2	451.56	221.34	681.59	470.88	229.49	594.91	851.82	209.49	530.48	837.1	181.74	560.92	768.09	196.03	621.03	782.68	219.95
317	1.3203	744.69	1790.7	385.21	543.06	1562.3	598.48	472.64	1588.9	143.75	533.62	1108.3	563.78	539.65	1055.7	209.45	314.73	1109.5	434.68	326.65	1101.8	304.95	305.47	1075.9	367.38	496.56	1180.3	170.7	502.74	1210.8	573.83	489.72	972.05	166.33	460.36	997.94	599.58	393.04	595.76	528.51	422.47	592.49	398.41	645.75	586.98	376.72	616.38	596.06	220.31	497.58	66.478	416.96	919.36	154.38	239.31	414.82	55.574	373.32	851.1	104.91	294.81	818.43	95.483	168.99	390.14	45.897	508.96	294.19	135.59	488.63	291.95	143.56	387.31	706.55	155.49	288.2	676.71	143.12	222.79	610.6	68.146	262.3	184.79	122.29	435.7	625.44	43.654	230.52	187.51	96.353	469.33	638.41	43.127	292.4	188.21	95.28	408.8	272.41	435.51	526.28	340.47	415.4	543.64	331.98	342.23	524.83	276.58	353.06	515.59	398.89	865.47	572.51	470.94	874.17	580.78	461.38	783.44	569.56	393.41	776.87	559.48	681.5	527.26	226.49	628.06	513.45	217.09	637.42	450.83	221.79	687.49	470.98	230.03	598.73	850.92	209.47	534.29	836.23	181.65	564.65	767.23	196.09	624.81	781.77	220.11
318	1.3245	748.49	1790.3	384.47	546.88	1562	598.14	476.26	1588.7	143.54	537.09	1108.2	563.5	543.93	1055.1	209.19	318.57	1109.2	433.98	330.67	1101.3	304.32	309.34	1075.5	366.75	500.77	1180	170.39	506.15	1210.8	573.43	493.89	971.33	166.16	463.6	997.97	599.33	394.86	596.01	528.46	424.49	592.55	398.37	649.47	586.4	377.19	620.16	595	220.71	497.61	66.458	416.97	930.36	158.42	240.24	414.95	55.548	373.36	862.82	107.84	295.69	830.55	97.805	169.78	390.28	45.877	508.98	294.58	136.05	488.67	292.43	144.03	387.38	717.5	155.89	288.79	687.95	143.09	223.35	623.07	66.963	262.74	185.17	123.06	435.69	638.34	42.718	231.03	187.83	97.08	469.35	651.21	42.445	292.95	188.51	96.034	408.79	273.66	436.15	526.13	341.62	415.83	543.63	332.9	342.69	524.87	277.59	353.68	515.49	401.7	865.74	572.31	473.78	874.18	580.61	463.93	783.5	569.43	395.96	777.16	559.33	686.41	527.27	227	633.21	512.57	217.55	643.57	450.12	222.24	693.33	471.07	230.57	602.55	850.01	209.43	538.12	835.35	181.54	568.4	766.34	196.12	628.59	780.84	220.25
319	1.3287	752.29	1789.8	383.72	550.71	1561.6	597.8	479.89	1588.5	143.33	540.56	1108	563.21	548.22	1054.4	208.94	322.41	1108.9	433.26	334.71	1100.7	303.69	313.22	1075.1	366.11	504.98	1179.7	170.09	509.56	1210.7	573.03	498.07	970.58	165.98	466.85	998	599.06	396.71	596.24	528.4	426.54	592.59	398.33	653.18	585.81	377.65	623.95	593.93	221.11	497.64	66.439	416.98	941.1	162.45	241.19	415.08	55.52	373.4	874.29	110.8	296.6	842.42	100.17	170.61	390.41	45.858	509	294.97	136.5	488.72	292.91	144.49	387.44	728.26	156.36	289.42	698.99	143.14	223.93	635.33	65.909	263.22	185.55	123.83	435.69	651.01	41.913	231.56	188.14	97.808	469.36	663.79	41.893	293.53	188.81	96.791	408.79	274.93	436.79	525.96	342.77	416.26	543.62	333.84	343.15	524.91	278.6	354.29	515.39	404.52	865.98	572.1	476.62	874.17	580.44	466.5	783.54	569.29	398.51	777.43	559.18	691.27	527.27	227.5	638.32	511.7	218.01	649.67	449.43	222.69	699.1	471.16	231.12	606.4	849.08	209.37	541.96	834.44	181.41	572.16	765.44	196.13	632.38	779.9	220.36
320	1.3329	756.1	1789.3	382.96	554.55	1561.2	597.44	483.52	1588.2	143.1	544.03	1107.9	562.92	552.5	1053.7	208.69	326.27	1108.5	432.54	338.75	1100.1	303.05	317.11	1074.7	365.47	509.2	1179.3	169.78	512.98	1210.6	572.62	502.25	969.82	165.8	470.1	998.01	598.79	398.58	596.46	528.34	428.61	592.62	398.28	656.9	585.21	378.11	627.74	592.86	221.5	497.66	66.42	416.99	951.58	166.46	242.16	415.21	55.492	373.44	885.5	113.78	297.56	854.02	102.55	171.46	390.55	45.838	509.02	295.36	136.95	488.76	293.39	144.95	387.5	738.82	156.89	290.07	709.83	143.27	224.54	647.37	64.977	263.73	185.93	124.6	435.68	663.44	41.228	232.13	188.46	98.538	469.37	676.12	41.461	294.15	189.11	97.551	408.79	276.21	437.42	525.8	343.95	416.67	543.61	334.79	343.6	524.95	279.63	354.9	515.29	407.36	866.22	571.89	479.48	874.16	580.27	469.08	783.57	569.16	401.09	777.69	559.01	696.1	527.25	228	643.4	510.84	218.46	655.71	448.76	223.15	704.81	471.25	231.66	610.26	848.14	209.3	545.82	833.53	181.27	575.95	764.53	196.11	636.17	778.96	220.45
321	1.337	759.93	1788.8	382.18	558.4	1560.7	597.08	487.15	1587.9	142.87	547.52	1107.7	562.62	556.79	1053	208.44	330.14	1108.2	431.81	342.8	1099.5	302.4	321	1074.2	364.82	513.43	1178.9	169.47	516.41	1210.5	572.19	506.44	969.04	165.61	473.35	998.01	598.51	400.47	596.67	528.27	430.71	592.63	398.23	660.62	584.6	378.55	631.55	591.79	221.89	497.68	66.402	417	961.8	170.43	243.14	415.34	55.463	373.47	896.44	116.76	298.54	865.36	104.95	172.33	390.68	45.818	509.03	295.76	137.39	488.81	293.88	145.41	387.56	749.16	157.48	290.73	720.45	143.46	225.17	659.18	64.158	264.26	186.32	125.38	435.68	675.63	40.655	232.73	188.78	99.269	469.38	688.2	41.137	294.79	189.42	98.314	408.8	277.52	438.05	525.62	345.14	417.08	543.58	335.75	344.05	524.98	280.67	355.51	515.18	410.21	866.43	571.66	482.35	874.13	580.09	471.67	783.58	569.02	403.67	777.93	558.83	700.9	527.22	228.5	648.46	510	218.91	661.69	448.12	223.6	710.46	471.34	232.2	614.14	847.2	209.22	549.71	832.6	181.12	579.76	763.62	196.09	639.98	778.01	220.52
322	1.3412	763.76	1788.3	381.39	562.26	1560.3	596.71	490.79	1587.6	142.62	551.01	1107.6	562.32	561.07	1052.3	208.18	334.01	1107.8	431.06	346.86	1098.9	301.74	324.9	1073.8	364.16	517.65	1178.6	169.15	519.84	1210.3	571.76	510.63	968.25	165.42	476.62	998	598.22	402.39	596.86	528.2	432.84	592.62	398.17	664.34	583.98	378.99	635.38	590.73	222.28	497.71	66.385	417.01	971.74	174.33	244.13	415.47	55.433	373.51	907.12	119.73	299.55	876.43	107.35	173.22	390.8	45.799	509.05	296.16	137.84	488.85	294.37	145.86	387.62	759.29	158.11	291.42	730.85	143.71	225.81	670.75	63.441	264.82	186.71	126.15	435.67	687.55	40.182	233.34	189.1	100	469.39	700.02	40.909	295.46	189.74	99.078	408.81	278.85	438.68	525.45	346.35	417.49	543.56	336.74	344.49	525	281.73	356.12	515.07	413.08	866.63	571.42	485.22	874.08	579.92	474.27	783.58	568.89	406.27	778.15	558.64	705.68	527.17	229	653.49	509.17	219.36	667.61	447.49	224.06	716.06	471.41	232.75	618.05	846.26	209.12	553.62	831.67	180.95	583.59	762.7	196.05	643.81	777.06	220.58
323	1.3454	767.61	1787.8	380.59	566.13	1559.8	596.32	494.43	1587.3	142.37	554.51	1107.4	562.01	565.36	1051.6	207.93	337.89	1107.4	430.31	350.93	1098.2	301.08	328.81	1073.3	363.5	521.87	1178.1	168.84	523.28	1210.2	571.31	514.83	967.45	165.22	479.9	997.97	597.93	404.33	597.04	528.12	434.99	592.6	398.12	668.08	583.35	379.42	639.23	589.69	222.66	497.73	66.369	417.02	981.41	178.16	245.14	415.6	55.402	373.55	917.52	122.66	300.58	887.22	109.73	174.13	390.93	45.78	509.06	296.57	138.29	488.9	294.86	146.31	387.68	769.18	158.77	292.11	741.02	144.01	226.47	682.06	62.819	265.38	187.11	126.93	435.67	699.2	39.8	233.96	189.43	100.74	469.39	711.55	40.765	296.13	190.06	99.846	408.82	280.2	439.3	525.27	347.58	417.88	543.53	337.74	344.92	525.02	282.81	356.72	514.95	415.96	866.82	571.18	488.11	874.01	579.74	476.89	783.57	568.74	408.89	778.36	558.44	710.43	527.12	229.5	658.5	508.37	219.81	673.48	446.89	224.52	721.61	471.48	233.3	621.98	845.31	209.03	557.57	830.74	180.77	587.46	761.78	196	647.66	776.12	220.62
324	1.3496	771.46	1787.2	379.78	570.01	1559.3	595.93	498.08	1586.9	142.1	558.03	1107.2	561.69	569.64	1050.9	207.68	341.79	1107.1	429.55	355.01	1097.6	300.4	332.73	1072.8	362.83	526.08	1177.7	168.52	526.74	1210	570.85	519.04	966.64	165.01	483.18	997.93	597.63	406.3	597.21	528.03	437.18	592.56	398.05	671.83	582.72	379.85	643.12	588.65	223.05	497.75	66.354	417.03	990.82	181.9	246.17	415.72	55.371	373.58	927.64	125.53	301.63	897.72	112.08	175.06	391.05	45.762	509.08	296.98	138.73	488.94	295.36	146.76	387.74	778.84	159.45	292.82	750.95	144.34	227.13	693.1	62.282	265.96	187.51	127.7	435.66	710.56	39.498	234.6	189.76	101.47	469.4	722.8	40.692	296.82	190.38	100.62	408.83	281.58	439.91	525.08	348.83	418.27	543.5	338.76	345.33	525.03	283.91	357.32	514.84	418.86	866.99	570.92	491.02	873.93	579.57	479.52	783.53	568.6	411.53	778.55	558.24	715.16	527.04	230	663.48	507.57	220.26	679.3	446.3	224.99	727.1	471.53	233.85	625.94	844.37	208.93	561.55	829.81	180.59	591.37	760.86	195.95	651.54	775.19	220.66
325	1.3538	775.34	1786.7	378.95	573.9	1558.8	595.53	501.73	1586.6	141.81	561.56	1106.9	561.37	573.93	1050.1	207.42	345.69	1106.7	428.78	359.1	1097	299.71	336.65	1072.4	362.15	530.3	1177.3	168.2	530.21	1209.9	570.38	523.27	965.83	164.79	486.48	997.87	597.33	408.31	597.36	527.95	439.39	592.49	397.99	675.59	582.08	380.28	647.04	587.63	223.44	497.76	66.339	417.04	999.95	185.52	247.21	415.84	55.34	373.62	937.47	128.33	302.69	907.93	114.38	175.99	391.17	45.744	509.09	297.39	139.17	488.99	295.87	147.21	387.8	788.26	160.14	293.53	760.64	144.69	227.81	703.85	61.82	266.54	187.92	128.48	435.66	721.62	39.264	235.23	190.1	102.21	469.4	733.74	40.678	297.51	190.71	101.39	408.85	282.98	440.53	524.9	350.12	418.65	543.46	339.81	345.74	525.03	285.04	357.92	514.72	421.79	867.14	570.65	493.94	873.83	579.38	482.17	783.48	568.45	414.18	778.72	558.02	719.88	526.95	230.5	668.46	506.8	220.7	685.06	445.74	225.45	732.55	471.58	234.4	629.94	843.45	208.83	565.56	828.89	180.4	595.31	759.95	195.89	655.44	774.27	220.69
326	1.3579	779.22	1786.1	378.12	577.8	1558.3	595.11	505.39	1586.1	141.51	565.11	1106.7	561.04	578.23	1049.4	207.17	349.6	1106.3	428	363.2	1096.3	299.01	340.59	1071.9	361.45	534.52	1176.8	167.88	533.69	1209.7	569.9	527.52	965.01	164.56	489.8	997.79	597.01	410.35	597.5	527.85	441.64	592.41	397.92	679.38	581.43	380.71	651	586.63	223.83	497.78	66.325	417.05	1008.8	189.01	248.27	415.96	55.308	373.65	947.01	131.03	303.76	917.85	116.63	176.94	391.29	45.726	509.11	297.81	139.61	489.04	296.38	147.66	387.85	797.42	160.83	294.25	770.07	145.06	228.48	714.31	61.423	267.12	188.34	129.25	435.67	732.38	39.089	235.87	190.44	102.95	469.41	744.38	40.711	298.2	191.05	102.16	408.88	284.41	441.13	524.71	351.42	419.01	543.42	340.88	346.14	525.03	286.18	358.51	514.6	424.73	867.27	570.37	496.87	873.71	579.2	484.85	783.42	568.3	416.86	778.87	557.79	724.59	526.85	231	673.42	506.05	221.15	690.78	445.19	225.92	737.95	471.61	234.96	633.97	842.53	208.73	569.62	827.97	180.22	599.3	759.05	195.84	659.37	773.37	220.72
